<svg width="24" height="24" viewBox="0 0 24 24" fill="none" xmlns="http://www.w3.org/2000/svg">
<path d="M16.765 16.2349C16.8018 16.2693 16.8314 16.3107 16.8519 16.3567C16.8724 16.4027 16.8834 16.4523 16.8843 16.5027C16.8852 16.553 16.8759 16.603 16.857 16.6497C16.8382 16.6964 16.8101 16.7388 16.7745 16.7744C16.7389 16.8101 16.6965 16.8381 16.6498 16.857C16.6031 16.8758 16.5531 16.8851 16.5027 16.8842C16.4524 16.8833 16.4027 16.8723 16.3567 16.8518C16.3107 16.8313 16.2693 16.8018 16.235 16.7649L12 12.5305L7.76498 16.7649C7.6939 16.8312 7.59987 16.8672 7.50272 16.8655C7.40557 16.8638 7.31288 16.8244 7.24417 16.7557C7.17547 16.687 7.13611 16.5943 7.1344 16.4972C7.13268 16.4 7.16874 16.306 7.23498 16.2349L11.4694 11.9999L7.23498 7.76492C7.16874 7.69384 7.13268 7.59981 7.1344 7.50266C7.13611 7.40551 7.17547 7.31282 7.24417 7.24411C7.31288 7.17541 7.40557 7.13605 7.50272 7.13434C7.59987 7.13262 7.6939 7.16868 7.76498 7.23492L12 11.4693L16.235 7.23492C16.3061 7.16868 16.4001 7.13262 16.4972 7.13434C16.5944 7.13605 16.6871 7.17541 16.7558 7.24411C16.8245 7.31282 16.8639 7.40551 16.8656 7.50266C16.8673 7.59981 16.8312 7.69384 16.765 7.76492L12.5306 11.9999L16.765 16.2349Z" fill="black"/>
</svg>
