<svg width="34" height="34" viewBox="0 0 34 34" fill="none" xmlns="http://www.w3.org/2000/svg">
<rect width="34" height="34" rx="17" fill="#F4F4F4"/>
<path d="M10.1688 10.2937C10.2617 10.2006 10.372 10.1267 10.4935 10.0763C10.615 10.0259 10.7452 10 10.8767 10C11.0082 10 11.1384 10.0259 11.2599 10.0763C11.3813 10.1267 11.4917 10.2006 11.5845 10.2937L16.8754 15.5866L22.1662 10.2937C22.2592 10.2008 22.3695 10.127 22.491 10.0767C22.6124 10.0264 22.7426 10.0005 22.8741 10.0005C23.0055 10.0005 23.1357 10.0264 23.2572 10.0767C23.3786 10.127 23.489 10.2008 23.5819 10.2937C23.6749 10.3867 23.7486 10.497 23.7989 10.6185C23.8492 10.7399 23.8751 10.8701 23.8751 11.0016C23.8751 11.133 23.8492 11.2632 23.7989 11.3847C23.7486 11.5061 23.6749 11.6165 23.5819 11.7094L18.2891 17.0003L23.5819 22.2911C23.6749 22.3841 23.7486 22.4944 23.7989 22.6159C23.8492 22.7373 23.8751 22.8675 23.8751 22.999C23.8751 23.1304 23.8492 23.2606 23.7989 23.382C23.7486 23.5035 23.6749 23.6138 23.5819 23.7068C23.489 23.7998 23.3786 23.8735 23.2572 23.9238C23.1357 23.9741 23.0055 24 22.8741 24C22.7426 24 22.6124 23.9741 22.491 23.9238C22.3695 23.8735 22.2592 23.7998 22.1662 23.7068L16.8754 18.414L11.5845 23.7068C11.4916 23.7998 11.3812 23.8735 11.2598 23.9238C11.1383 23.9741 11.0082 24 10.8767 24C10.7452 24 10.6151 23.9741 10.4936 23.9238C10.3722 23.8735 10.2618 23.7998 10.1688 23.7068C10.0759 23.6138 10.0022 23.5035 9.95185 23.382C9.90154 23.2606 9.87565 23.1304 9.87565 22.999C9.87565 22.8675 9.90154 22.7373 9.95185 22.6159C10.0022 22.4944 10.0759 22.3841 10.1688 22.2911L15.4617 17.0003L10.1688 11.7094C10.0757 11.6165 10.0019 11.5062 9.95147 11.3848C9.90107 11.2633 9.87512 11.1331 9.87512 11.0016C9.87512 10.8701 9.90107 10.7398 9.95147 10.6184C10.0019 10.4969 10.0757 10.3866 10.1688 10.2937Z" fill="#DE1616"/>
</svg>
