<svg width="34" height="34" viewBox="0 0 34 34" fill="none" xmlns="http://www.w3.org/2000/svg">
<rect width="34" height="34" rx="17" fill="#F4F4F4"/>
<path d="M8.78345 11.9H10.4834H24.0834" stroke="#E01919" stroke-linecap="round" stroke-linejoin="round"/>
<path d="M22.3835 11.9V23.8C22.3835 24.2509 22.2044 24.6833 21.8855 25.0021C21.5667 25.3209 21.1343 25.5 20.6835 25.5H12.1835C11.7326 25.5 11.3002 25.3209 10.9814 25.0021C10.6626 24.6833 10.4835 24.2509 10.4835 23.8V11.9M13.0335 11.9V10.2C13.0335 9.74913 13.2126 9.31673 13.5314 8.99792C13.8502 8.67911 14.2826 8.5 14.7335 8.5H18.1335C18.5843 8.5 19.0167 8.67911 19.3355 8.99792C19.6544 9.31673 19.8335 9.74913 19.8335 10.2V11.9" stroke="#E01919" stroke-linecap="round" stroke-linejoin="round"/>
<path d="M14.7335 16.15V21.25" stroke="#E01919" stroke-linecap="round" stroke-linejoin="round"/>
<path d="M18.1335 16.15V21.25" stroke="#E01919" stroke-linecap="round" stroke-linejoin="round"/>
</svg>
