<svg width="34" height="34" viewBox="0 0 34 34" fill="none" xmlns="http://www.w3.org/2000/svg">
<rect width="34" height="34" rx="17" fill="#F4F4F4"/>
<path d="M16.7167 10.2001H10.7667C10.3159 10.2001 9.88347 10.3792 9.56466 10.698C9.24585 11.0168 9.06674 11.4492 9.06674 11.9001V23.8001C9.06674 24.2509 9.24585 24.6833 9.56466 25.0022C9.88347 25.321 10.3159 25.5001 10.7667 25.5001H22.6667C23.1176 25.5001 23.55 25.321 23.8688 25.0022C24.1876 24.6833 24.3667 24.2509 24.3667 23.8001V17.8501" stroke="black" stroke-linecap="round" stroke-linejoin="round"/>
<path d="M23.0917 8.92509C23.4299 8.58694 23.8885 8.39697 24.3667 8.39697C24.8449 8.39697 25.3036 8.58694 25.6417 8.92509C25.9799 9.26325 26.1698 9.72188 26.1698 10.2001C26.1698 10.6783 25.9799 11.1369 25.6417 11.4751L17.5667 19.5501L14.1667 20.4001L15.0167 17.0001L23.0917 8.92509Z" stroke="black" stroke-linecap="round" stroke-linejoin="round"/>
</svg>
