<svg xmlns="http://www.w3.org/2000/svg" width="160" height="100" viewBox="0 0 3000 2000" preserveAspectRatio="xMidYMid meet" fill="#C2185B" xmlns:v="https://vecta.io/nano">
<path d="M1577 89v88h-5.7c-14.7 0-37.7 4-55.6 9.7-21.5 6.7-49.8 22.3-69.1 38.1-35.7 29.1-68.1 74.6-91.3 128.2-4.2 9.5-13.3 34-13.3 35.6 0 .2 108.2.4 240.5.4H1823l-.6-2.8c-.4-1.5-2.5-8.3-4.6-15.2-13-42-35.1-82.6-61.2-112.8-43.1-49.8-94.8-75.8-160.3-80.8l-9.3-.7V88.9 1h-5-5v88zm455.2 145c-46.8 5.9-86.9 34.8-106.2 76.3-4.5 9.8-8.8 22.5-9.5 28.1-.4 2.8.1 1.8 1.4-3 12.6-44.9 44.8-78.7 88.8-93.3 14.5-4.8 27.2-6.5 45.2-5.8 20.9.8 34.3 4.1 52.6 13.1 15.5 7.7 27.3 16.4 38.5 28.3 23.7 25.3 36 56.6 36 91.3 0 15.4-2 28.2-6.6 42l-3.4 10.5 10.6 24.5 17 40c-.2 0-13.1-4.9-28.7-11l-28.4-11-3.5 3.4c-17 16.1-43.8 29.1-68.8 33.2-12.6 2.1-35.9 1.4-48.2-1.5-25.2-5.8-46.9-17.5-64.6-34.7-11.8-11.5-19.1-21.4-26.4-36.2-5.4-10.9-7.2-15.7-10.5-28.7-1.3-5-2.4-8-2.5-6.9 0 4.2 5.2 22 9.2 31.2 14.7 33.5 41.8 59.4 75.8 72.1 45.9 17.2 97.3 8.2 134.6-23.6 2.8-2.3 5.6-4.3 6.1-4.3 1 0 25 9.1 49.2 18.6 6.2 2.5 11.5 4.3 11.7 4.1s-5.3-13.4-12.2-29.3l-15-34.6-2.4-5.7 2.9-8.8c5.4-16.1 6.6-24.1 6.6-43.3-.1-25.7-3.7-41-15.2-63.1-18.6-36.1-52.8-61.9-92.3-69.9-11.8-2.3-31.4-3.3-41.8-2zm354.9 41.6c0 1.1.3 1.4.6.6.3-.7.2-1.6-.1-1.9-.3-.4-.6.2-.5 1.3zm112.4 11.7c-26.6 36.1-70.5 98.7-69.1 98.7 1.6 0 79.4-109.5 78.5-110.5-.2-.2-4.4 5.2-9.4 11.8zm-111.4-3.8c-.2 11 6.9 86.7 7.7 81.6.6-3.7-5.8-80.4-7.2-86.1-.2-.8-.4 1.2-.5 4.5zM2040.6 308c-6.1 1.6-14.9 6.7-19.9 11.7-4.6 4.5-11.7 16.9-11.7 20.3 0 3.3 3.9 7 7.5 7 3.7 0 4.9-1.2 8.1-7.9 6.4-13.8 21.4-20.9 33.6-15.8 4.1 1.7 10.1 7.5 12.4 11.8 5.5 10.6.1 23.4-12.1 28.5-1.9.8-6.7 1.4-10.9 1.4-6.4 0-7.8.3-9.6 2.2-2.3 2.5-2.3 2.8-1.1 28.2.8 15.9 1 17.1 3.1 18.8 3.1 2.5 7.5 2.3 10-.5 2-2.1 2.1-2.8 1.4-17.8l-.7-15.6 5.7-1.1c12-2.4 22.5-10.4 27.7-21 1.9-3.8 2.4-6.3 2.4-13.7 0-10.7-2.4-16.9-9.8-25.1-8.7-9.6-24-14.4-36.1-11.4zm-125.4 37c0 1.4.2 1.9.5 1.2.2-.6.2-1.8 0-2.5-.3-.6-.5-.1-.5 1.3zm-1 5.5c0 1.6.2 2.2.5 1.2.2-.9.2-2.3 0-3-.3-.6-.5.1-.5 1.8zm-.9 23.5c0 4.1.2 5.8.4 3.7a46.95 46.95 0 0 0 0-7.5c-.2-2-.4-.3-.4 3.8zm1 12.5c0 2.2.2 3 .4 1.7.2-1.2.2-3 0-4-.3-.9-.5.1-.4 2.3zm604.2 10c-40.8 8.3-52 10.8-50.7 11.3 2.1.7 73.3-13.5 83.7-16.7 8.4-2.6-4.5-.5-33 5.4zm-205.1 13c-7.6 1.7-17 5.5-23.4 9.4-2.7 1.6-6.7 3.5-9 4.1-5.1 1.4-11.4 7.5-14 13.5s-4 14.4-4 23.4c0 9.7-1.5 19.8-3.7 25.2-.9 2.3-4.9 8.6-8.9 14-4 5.3-8 11.1-8.9 12.9-2.7 5.2-2.9 11.7-.6 20.7 3.2 12.5 2.9 17.4-1.9 26.3-11.6 21.8-12 23.7-8.1 38.7 3.2 12.3 2.9 14.7-3.1 26-5 9.4-5.3 10.1-5.2 17.3 0 5 .6 8.5 1.7 10.6 1.6 3.1 1.6 3.2-5.2 18.6-7.9 17.9-14.4 34.3-28.5 72.8l-10.2 27.6 13.1 7.1c16.1 8.8 53.7 27.6 66.5 33.2l9.6 4.2 4.7 13.2 4.8 13.2-.1 24.9c-.1 22-.3 25.3-1.9 28.5-1 2-4.8 11.4-8.5 20.9-19.2 50.2-30.5 101.5-32.2 146.7l-.6 16 2.9-4.5c7.2-10.9 16-15.9 38.3-21.5 30.5-7.8 37.3-14.3 48.5-46.5 6.1-17.6 10.7-26.2 17.7-33.2 7.8-7.9 16.8-11.9 35.9-16.4 32.3-7.5 40.5-10.9 51-21.5 11.6-11.6 17.7-27.8 16.7-44.3-.3-4.5-.2-7 .2-5.6 1.4 4.4 1.1 18.4-.5 24.5-5.2 20.5-19.3 35.4-40.1 42.4-3.4 1.1-13.8 3.8-23.2 6-35.1 8.1-43.5 15.6-55.2 48.6-11.8 33.6-19.1 40.5-50.6 48-17.3 4.1-26 8-32.4 14.4-7.7 7.8-8.5 10.4-8.3 26.6.4 17.5 2.9 58.8 5.4 89l2 25c.3 9.6 10.9 126 17.6 192.6l2.7 26.6 12 .7c6.5.3 23.7.6 38 .6h26.1l2.3 10.3c4.5 19.6 5.6 25.3 19.4 105.2l5.8 33.5c.6 2.8.8-10.1.5-34l-.4-38.5-4.6-12c-13.3-34.4-20.5-56.4-20.5-62.5 0-1.6 4.3-1.7 64.6-2.2l65-1c.2-.3-1-45.7-2.7-100.9l-2.5-113.9c.8-17 2.8-35.6 7.1-68.3l3.5-27.2c0-2.4-1.3-1.8-5.8 2.7-5.9 5.8-10.4 15.5-15.7 34.1-5.3 18.5-8.2 25.9-12.3 31.9-6.6 9.6-15.6 15.4-31.6 20.3-18.1 5.5-26.6 10.6-33.5 20.4-5.2 7.5-7.4 12.4-14.6 33.1-6.7 19.3-10.2 26.4-16.6 33.5-9 9.7-18.6 13.1-39.8 14-18 .8-25.7 2.1-32.8 5.4-5.9 2.8-11.5 8.2-13.5 13-.6 1.4-1.4 5.1-1.8 8.1l-.7 5.5-.2-5.3c-.1-6.5 1.6-10.7 6.5-16.2 7.5-8.3 17.5-11.3 40.4-12.5 21.8-1 30.4-3.7 38.9-12.3 6.2-6.3 11-15.8 17.7-35.3 7.5-21.9 12.1-30.8 19.8-38.4 7-7 11.9-9.6 29.6-15.5 26.3-8.7 32.9-16.2 42-48 6.5-22.8 13.9-36.3 22-40.5 2.6-1.3 2.8-2 4.4-15.7 4.7-39.6 6.2-80.1 3.7-96.3-2.3-14.7-7.2-35.8-13.6-58-7.1-24.7-17.8-57.9-20-62.2-.8-1.5-1.5-5.1-1.6-7.8 0-2.8-.4-7-.7-9.4l-.7-4.5-4.1 4.7c-5.1 5.8-15.3 12.8-23.1 15.7-11.9 4.6-25.8 2.6-37.9-5.2-7.8-5-19.8-18-27.5-29.6-23.4-35.4-48.3-103.7-60.8-167-1.2-5.7-2.5-11.1-3-12.1-.5-.9-3.9-10.5-7.5-21.2-6.1-18.2-9.6-33.4-9.6-41.4 0-3 .3-3.5 2.3-3.5 2.9 0 3.3.8 8.1 16.3 2 6.4 4.1 11.5 4.7 11.2 1.5-1 1-13.8-1.2-27.2-1.1-6.9-1.8-13.7-1.4-15 .7-3 3.8-3 5.9.1 2.6 4 7.6 26.3 7.6 33.8 0 3.2 2.3 7.9 3.3 6.8.2-.3.7-3.4 1-7 .3-4.2.3-5.5-.3-3.5-.6 2.4-.8 1.6-.7-3.5l-.2-18.6c-.2-12.4.8-17.4 3.3-17.4 2.6 0 3.4 2.5 4.5 14.5 2.3 23.2 5.3 36.5 8.1 36.5s3.5-4.8 3.3-23.2c-.2-15.3.1-18.8 1.2-19.8 3.7-3.1 5.8 3.4 9.5 29.5 2.2 15.5 4.8 23.5 7.4 23.5 2 0 2 .1 2.1-17 0-12.5.2-14.5 1.6-14.8 2.2-.4 2.7 1.1 5.5 15.8 3.7 19.5 3.9 23 1.9 29-2.1 6.4-1.8 9.5 3 25.8 11 37.8 28.4 80.2 45.9 111.7l4.5 8 2.9-6.5c1.6-3.6 3.2-7.7 3.5-9.1.5-2.1 1.4-2.8 4.4-3.3 2.1-.3 22.4-.6 45.2-.6h41.4l-.6-6.8c-.4-3.7-1.2-13.9-1.7-22.7-2.6-39.3-6.3-64.9-11.3-77.1-5.2-13-15.7-25.8-27.5-33.7-3.9-2.6-7.7-4.9-8.5-5.3-1-.4-1.6-2.4-1.9-7-.3-5.3-1.2-8-5.3-15.7-13.7-26.2-13-24.3-12.9-33.1 0-7.1.5-9.1 3.7-16.4 6.2-14 6.6-24.3 1.4-35.5-2.7-5.7-5.8-9.3-15.9-18-8.7-7.6-12.2-14.4-14.8-29.3-2.7-14.8-4.5-20.6-9.1-29.5-10.3-19.8-29.3-34.5-50.6-39.3-8.7-1.9-25.3-2-33.9-.1zm-26 36c4.3 6.5 15.3 9.8 38.1 11.3 7.7.6 15.2 1.6 16.6 2.2 3.1 1.4 5.2 5.4 4.4 8.1-1 3 2.2 13.7 5.6 18.5 2.9 4.2 7.9 8.6 16.8 14.6 6 4.1 5.7 5.8-3.8 20.3-6.5 9.8-6.8 12.5-3.6 23.6 1.7 5.5 2.4 10 2 11.7-.3 1.6-2.8 6.6-5.6 11.3-6.9 11.5-6.7 14.6 1.9 28.8 8.3 13.9 8.6 16.8 4.7 42.4-1.3 8.6-1.5 12.1-.6 16.9.6 3.3.8 6.4.6 6.9-1 1.6-10.6 4.2-11.7 3.1-1.2-1.2-.6-7.9 1.2-14.4 1.3-4.2 1.1-6.2-1.4-21.5-1.5-9.2-3.3-17.9-3.9-19.2-1.7-3.5-4.3-4.9-6.4-3.5-1.6 1-1.8 2.8-1.6 15.8.4 26-2.5 17.5-8.3-23.9l-.6-4 5.7-2.9c5.2-2.7 14.5-10.9 14.5-12.8 0-.5-2.2.3-4.9 1.7-8 4-16.6 6-19.7 4.7-2.6-1.2-6.4-.2-6.4 1.7 0 .5-2 1.1-4.5 1.3-4.2.3-4.5.2-4.5-2.2 0-4.5-2.3-7.5-5.5-7.5-2.5 0-3.1.5-4 3.7l-1 3.6-3.5-1.8c-4.8-2.5-12.3-10.6-15.4-16.9-4.2-8.1-5.8-17.1-6.1-33.1-.3-17.2 1.3-39.8 4.9-67.9l2.6-21.7c0-2.2 1.6-1.6 3.4 1.1zm33 153.6c1 5.2.7 23.6-.5 26.6l-1.1 2.8-1-2.5c-1.1-2.8-4.8-23.2-4.8-26.7 0-1.6.7-2.3 2.8-2.6 1.5-.2 3-.5 3.3-.6.4 0 .9 1.3 1.3 3zm157.7 413.8c-3.7 12.3-14.3 25.4-28.7 35.7-3.5 2.5-14.8 9.3-25.1 15.1-36.1 20.2-41.4 25.4-58.3 57.3-10.3 19.5-14.1 25-22.6 33-9.3 8.8-17.7 12.9-42.7 21.1-11.7 3.9-24.4 8.5-28.3 10.4-9.1 4.4-18.1 11.1-22.4 16.6-4.7 6.2-5 6.5-5 5.2 0-2.3 8.3-11.5 14.3-15.9 8.6-6.3 19.4-11.2 39.7-17.9 38.2-12.5 46.4-19.2 63.9-52.2 17.8-33.4 24.5-40.1 60.6-59.8 21.3-11.7 29.5-17.3 38.6-26.5 9.8-9.8 15.8-21.2 16.8-31.6.6-6.6.6-6.7.9-2 .2 2.9-.5 7.6-1.7 11.5zm-13.1 303.9c-1.3 6.8-3.8 11.7-9.4 17.9-8.3 9.2-19.3 15-41.1 21.8-24.1 7.4-33 12.6-44.7 25.7-12.5 14.2-24.1 25.2-30.1 28.7-13.3 7.8-30.5 11.8-46.1 10.8-9.4-.6-23.3-4.3-27.1-7.1-1.4-1-.2-.9 3.5.5 22.6 8.5 49.7 5.6 69.8-7.4 8.1-5.2 13-9.9 24.7-23.5 4.9-5.6 11.1-12 13.9-14.1 7-5.4 17.9-10.5 31.6-14.7 24.3-7.4 32.9-11.4 41.4-19.3 7.8-7.4 10.9-12.6 13.1-22.5 1.1-4.9 1.6-2.2.5 3.2zM2284.2 475c-2.8 1.2-3.9 3.9-2.1 5.1 2 1.4 14.6.6 16.1-1 1.1-1 .9-1.6-1.1-3.2-2.5-2-8.8-2.5-12.9-.9zm46 4.5c-3.1 2.3-1.5 4.1 5.1 5.5 9.3 2.1 13.2 0 7.6-4.2-3.6-2.7-9.8-3.4-12.7-1.3zm-47.3 13.4c-3.2 2.5-2.2 3.3 2.5 2 2.8-.8 5.1-.7 8.4.1 5.4 1.3 6.1.9 2.6-1.9-3.5-2.7-10.3-2.8-13.5-.2zm28.3 8.2c-2.2 4.6-5.6 12.8-7.7 18.2-4.7 11.9-4.4 13.1 3.6 13.4 3.9.2 4.8 0 3.4-.7-1.1-.5-3.2-.9-4.7-.9-3.7-.1-3.6-1.7.7-12 4.8-11.3 9.7-25.3 9-25.9-.3-.3-2.2 3.3-4.3 7.9zm20.7-5.2c-3.2 2.5-2.2 3.3 2.5 2 2.8-.8 5.1-.7 8.4.1 5.4 1.3 6.1.9 2.6-1.9-3.5-2.7-10.3-2.8-13.5-.2zm-47.6 2.3c-2 2.6-2.1 4.6-.4 6.2 4.8 4.3 11.1-1.3 6.5-5.8-1.9-1.9-4.8-2.1-6.1-.4zm46.8 3.2c-2 2.4-.5 6.5 2.6 7.2 2 .6 3.1.2 4.5-1.6 1.6-2 1.7-2.5.5-4.4-1.8-2.6-5.9-3.2-7.6-1.2zm-22.5 43.2c-2.1 2-2 3 .4 5.4 1.7 1.7 2.4 1.8 4.1 1 2.9-1.6 3.4-3.8 1.4-6-2.2-2.4-3.8-2.5-5.9-.4zm-266-117c-3.5 3.5-.6 9.4 4.6 9.4 3.1 0 5.1-2.1 5.1-5.5 0-1.4-.6-3.2-1.3-4-1.6-2-6.4-1.9-8.4.1zM1532.5 755c-37.7.6-37.8.6-49.9 6.6-9.3 4.5-5.3.5-94.5 95.4l-20.6 21.6-6 6.2-308.5 1.5-314.5 3.2c-11.3 3.1-18.4 7.4-27.5 16.5-9.2 9.2-14.5 18.1-17.5 29.7-3.6 13.6-3.9 10.5 17.9 185.3l47.1 377.5 28.9 221c4.5 14.6 13.2 26.4 25.2 34.4l7.6 5.1H692.6 565l-.5-2.3-3.1-20.2c-3.8-25.7-3.6-41.8.7-58.5.8-3.3 1.3-3.6 6.6-4.9 14.7-3.4 26.4-11.5 39.9-27.8 11.7-14 15-25.1 10.2-34.3-3.2-6.1-7.6-8.5-15.3-8.4-15.1.4-33.4 11.9-42.2 26.5-6.9 11.5-8.1 26.4-3 38.7l2.5 6.3-1.9 9.2c-2.8 13.5-2.6 31.6.6 50.3 1.4 8.1 2.5 15 2.4 15.3 0 .3-3.3-8.9-7.3-20.4-4-11.6-11.9-33.2-17.5-48l-12.3-32.7-2.2-5.7 2.2-9.8c6.5-29.1 6.7-51 .6-72-2.8-9.5-8.9-22.6-13.7-28.8-8.1-10.8-23-20.1-33.9-21.2-5.2-.5-6.1-.3-9.3 2.1-1.9 1.5-4.4 4.5-5.5 6.6-7.4 14.6-3.5 48.2 8.6 72.3 11.4 22.8 27.1 40.7 43 48.9l6.3 3.3 3.7 9.5 27.1 72.7c-.2.2-2-2-3.9-4.9s-6.8-8.9-10.9-13.3-9.1-10.3-11.2-13.1c-4.7-6.6-15.8-17-23.8-22.4-13.8-9.4-31.2-15.6-46.9-16.7-10.1-.6-15.6.6-19.9 4.6-2.7 2.6-3.1 3.6-3.1 8.3 0 6.6 3 11.7 11.7 19.9 10.4 9.9 21.7 16.1 36.8 20.2 10.5 2.8 30.7 3 40.5.3l8.8-2.3c1.8-.4 3.2.3 5.9 2.8 5.3 5.1 15 18.4 18.5 25.3 3.9 7.7 9.9 23.8 9.2 24.5-.3.4-29 .8-63.7 1.1l-63.2.6 64.5.2 194.7.2 136.3 1.7c5.7 1.5 41.5 1.6 561.3.3l865.7-.8c3.4 1 14.9 1.2 47 1.1l46-.8c1.9-.3 22.6-.8 46-1.2l42.5-.6-4.2 4.6c-8.8 9.5-4.7 9.8 16.3 1.1l13.1-5.4 49.4-.2 49.4-.3-47.5-.5-47.5-.5 10-4.8 59-29.7c.6-.9-9.7-24-10.7-24-.4 0-12.9 6.1-27.8 13.5l-27.7 13.5c-.5 0-1.9.9-3.3 2s-3.3 2-4.2 2c-1.8 0-3.9 2.9-3.7 5.2 0 .7.5.1 1.1-1.5 1.2-3.3 2.8-3.5 2.8-.3 0 4.1-1 5.8-2.6 4.5-.8-.7-1.7-.9-2.1-.5-.3.3-.1.6.5.6.7 0 1.2.4 1.2 1 0 .5-.8 1-1.7 1-1.3 0-1.5.2-.5.8.9.6-.9 2.7-6.3 7-4.1 3.4-7.9 6.2-8.4 6.2s-1.1.7-1.5 1.5c-.5 1.3-5.3 1.5-35.1 1.5H2374v-11.5c0-9.6-.3-11.7-1.6-12.2-.8-.3-13.5 0-28.2.6l-35.5 1.3c-8.1.1-9 .4-10.4 2.4-1.4 2.2-1.6 2.3-4.5.8-3.6-1.9-8.1-1.1-7.6 1.3.2.9 1 1.8 1.8 2 1.2.4 1.3.3.1-.5-1.6-1.1-.6-3.2 1.5-3.2s7.4 2.9 7.4 4c0 .6-.7 1-1.6 1-.8 0-1.3.4-1 .8.4.7-15.1 5.4-18.9 5.8-1.1.1-2 .4-12 4.5l-7 2.9-140-.1-140-.1 11.4-2.4c14.7-3 16.5-3.6 29.1-9.6 9.5-4.6 11.3-5.9 19.8-14.7 14.6-15.1 24.1-30.2 31.6-50.4 3.1-8.2 55.5-221.1 130.7-530.7l24.1-98.5c18.8-77 20.1-82.7 20.6-93.6.5-13.2-1.2-24-5.5-34.9-6-14.9-17.1-27.8-28-32.2l-5.8-2.3H2002h-202.4l-5.2-42.1c-5.7-45.6-7-51.4-14-63.4-5.3-9.1-14.6-17.8-24.3-22.9-14-7.3-11.4-7.1-105.1-6.9l-118.5.8zm-123.6 468c11.3 9.9 12.3 11.1 10.8 13.1-.6.9-24.4 26.5-52.7 56.9l-51.8 55.9c-.1.5 10.7 10.6 24 22.6l48.3 43.4 24.3 22c11.2 10.1 20.2 18.7 20 19.1-.8 2.1-34.7 38-35.9 38-.6 0-98.5-87.4-115.2-102.9l-2.8-2.6-3.2 3.5-53.1 57-50.7 53.5c-1 0-39.9-34.6-39.9-35.5 0-.5 1.5-2.2 15-16.5l40.5-43.5 40.6-43.5c7.9-8.2 10.3-11.5 9.3-12.4-.5-.5-17.3-15.6-37.4-33.6l-41.5-37.2-21.2-19.1c-9-8.1-16.3-15-16.3-15.4s6.2-7.4 13.8-15.5l17.9-19.2 4.1-4.6 3.4 3.1c1.8 1.7 12.8 11.5 24.3 21.8l25 22.5c19.4 17.9 64.6 58.1 65.4 58.1.5 0 16.4-16.5 35.2-36.8l59.3-63.5 12.8-13.7 10.2 9.3 17.5 15.7zm1058.6 516c-1.2 1.9-2.2 1-1.7-1.6.4-2.2.6-2.4 1.4-1 .5.9.6 2.1.3 2.6zm-164.5-.1c0 .6-1.1 2.3-2.5 3.8-2.1 2.4-2.4 2.5-2.5.9 0-1.1.7-2.8 1.7-3.8 1.7-2 3.3-2.4 3.3-.9zm.5 5.2c-.4.5-1.3.9-2.2.9-1.3 0-1.3-.3-.3-1.5 1.3-1.5 3.5-1.1 2.5.6zm149.7-4.5c-3.5 2.4-2.8 4.4 1.6 4.2l3.7-.1-3.3-.4c-4.1-.5-3.7-2.4.9-4 2.2-.8 2.7-1.2 1.4-1.2-1.1-.1-3.1.6-4.3 1.5zm-162.4 5.1c.7.3 1.6.2 1.9-.1.4-.3-.2-.6-1.3-.5-1.1 0-1.4.3-.6.6z"/></svg>