<svg width="34" height="34" viewBox="0 0 34 34" fill="none" xmlns="http://www.w3.org/2000/svg">
<rect width="34" height="34" rx="17" fill="#F4F4F4"/>
<path d="M21 17.25C21 16.9185 21.1317 16.6005 21.3661 16.3661C21.6005 16.1317 21.9185 16 22.25 16C22.5815 16 22.8995 16.1317 23.1339 16.3661C23.3683 16.6005 23.5 16.9185 23.5 17.25C23.5 17.5815 23.3683 17.8995 23.1339 18.1339C22.8995 18.3683 22.5815 18.5 22.25 18.5C21.9185 18.5 21.6005 18.3683 21.3661 18.1339C21.1317 17.8995 21 17.5815 21 17.25ZM16 17.25C16 16.9185 16.1317 16.6005 16.3661 16.3661C16.6005 16.1317 16.9185 16 17.25 16C17.5815 16 17.8995 16.1317 18.1339 16.3661C18.3683 16.6005 18.5 16.9185 18.5 17.25C18.5 17.5815 18.3683 17.8995 18.1339 18.1339C17.8995 18.3683 17.5815 18.5 17.25 18.5C16.9185 18.5 16.6005 18.3683 16.3661 18.1339C16.1317 17.8995 16 17.5815 16 17.25ZM11 17.25C11 16.9185 11.1317 16.6005 11.3661 16.3661C11.6005 16.1317 11.9185 16 12.25 16C12.5815 16 12.8995 16.1317 13.1339 16.3661C13.3683 16.6005 13.5 16.9185 13.5 17.25C13.5 17.5815 13.3683 17.8995 13.1339 18.1339C12.8995 18.3683 12.5815 18.5 12.25 18.5C11.9185 18.5 11.6005 18.3683 11.3661 18.1339C11.1317 17.8995 11 17.5815 11 17.25Z" fill="black"/>
</svg>
